<svg width="60" height="60" viewBox="0 0 60 60" fill="none" xmlns="http://www.w3.org/2000/svg">
<rect width="60" height="60" rx="10" fill="#FFBCBC"/>
<path d="M30.5 48C20.2816 48 12 39.7184 12 29.5C12 19.2816 20.2816 11 30.5 11C40.7184 11 49 19.2816 49 29.5C49 39.7184 40.7184 48 30.5 48ZM30.5 34.125C29.2209 34.125 28.1875 35.1584 28.1875 36.4375C28.1875 37.7166 29.2209 38.75 30.5 38.75C31.7791 38.75 32.8125 37.7166 32.8125 36.4375C32.8125 35.1584 31.7791 34.125 30.5 34.125ZM30.5 20.25C29.1848 20.25 28.1369 21.3701 28.2309 22.6854L28.7656 30.201C28.8307 31.1115 29.5895 31.8125 30.4928 31.8125C31.4033 31.8125 32.1549 31.1115 32.2199 30.201L32.7547 22.6854C32.8486 21.3701 31.808 20.25 30.4855 20.25H30.5Z" fill="#FF4646"/>
</svg>
