<svg width="60" height="60" viewBox="0 0 60 60" fill="none" xmlns="http://www.w3.org/2000/svg">
<rect width="60" height="60" rx="10" fill="#CCDCFF"/>
<path d="M16.8889 17.9C16.3542 17.9 15.9167 18.335 15.9167 18.8667V36.2667C15.9167 36.7983 16.3542 37.2333 16.8889 37.2333H17.0894C17.7214 35.004 19.7873 33.3667 22.2361 33.3667C24.6849 33.3667 26.7448 35.004 27.3828 37.2333H33.6172C33.9149 36.1821 34.5347 35.2577 35.3611 34.581V18.8667C35.3611 18.335 34.9236 17.9 34.3889 17.9H16.8889ZM17.0894 40.1333H16.8889C14.7439 40.1333 13 38.3994 13 36.2667V18.8667C13 16.734 14.7439 15 16.8889 15H34.3889C36.5339 15 38.2778 16.734 38.2778 18.8667V20.8H41.6441C42.6771 20.8 43.6675 21.2048 44.3967 21.9298L46.8637 24.3827C47.5929 25.1077 48 26.0925 48 27.1196V36.2667C48 38.3994 46.2561 40.1333 44.1111 40.1333H43.9106C43.2786 42.3627 41.2127 44 38.7639 44C36.3151 44 34.2552 42.3627 33.6172 40.1333H27.3828C26.7509 42.3627 24.6849 44 22.2361 44C19.7873 44 17.7274 42.3627 17.0894 40.1333ZM38.2778 28.5333H45.0833V27.1196C45.0833 26.8658 44.98 26.6181 44.7977 26.4369L42.3307 23.984C42.1484 23.8027 41.8993 23.7 41.6441 23.7H38.2778V28.5333ZM38.2778 31.4333V33.3908C38.4358 33.3787 38.5998 33.3667 38.7639 33.3667C41.2127 33.3667 43.2726 35.004 43.9106 37.2333H44.1111C44.6458 37.2333 45.0833 36.7983 45.0833 36.2667V31.4333H38.2778ZM22.2361 41.1C23.579 41.1 24.6667 40.0185 24.6667 38.6833C24.6667 37.3481 23.579 36.2667 22.2361 36.2667C20.8932 36.2667 19.8056 37.3481 19.8056 38.6833C19.8056 40.0185 20.8932 41.1 22.2361 41.1ZM38.7639 41.1C40.1068 41.1 41.1944 40.0185 41.1944 38.6833C41.1944 37.3481 40.1068 36.2667 38.7639 36.2667C37.421 36.2667 36.3333 37.3481 36.3333 38.6833C36.3333 40.0185 37.421 41.1 38.7639 41.1Z" fill="#2563EB"/>
</svg>
