<svg width="22" height="18" viewBox="0 0 22 18" fill="none" xmlns="http://www.w3.org/2000/svg">
<path d="M2.44444 1.8C2.10833 1.8 1.83333 2.07 1.83333 2.4V13.2C1.83333 13.53 2.10833 13.8 2.44444 13.8H2.57049C2.96771 12.4163 4.26632 11.4 5.80556 11.4C7.34479 11.4 8.63958 12.4163 9.04063 13.8H12.9594C13.1465 13.1475 13.5361 12.5738 14.0556 12.1538V2.4C14.0556 2.07 13.7806 1.8 13.4444 1.8H2.44444ZM2.57049 15.6H2.44444C1.09618 15.6 0 14.5238 0 13.2V2.4C0 1.07625 1.09618 0 2.44444 0H13.4444C14.7927 0 15.8889 1.07625 15.8889 2.4V3.6H18.0049C18.6542 3.6 19.2767 3.85125 19.7351 4.30125L21.2858 5.82375C21.7441 6.27375 22 6.885 22 7.5225V13.2C22 14.5238 20.9038 15.6 19.5556 15.6H19.4295C19.0323 16.9838 17.7337 18 16.1944 18C14.6552 18 13.3604 16.9838 12.9594 15.6H9.04063C8.6434 16.9838 7.34479 18 5.80556 18C4.26632 18 2.97153 16.9838 2.57049 15.6ZM15.8889 8.4H20.1667V7.5225C20.1667 7.365 20.1017 7.21125 19.9872 7.09875L18.4365 5.57625C18.3219 5.46375 18.1653 5.4 18.0049 5.4H15.8889V8.4ZM15.8889 10.2V11.415C15.9882 11.4075 16.0913 11.4 16.1944 11.4C17.7337 11.4 19.0285 12.4163 19.4295 13.8H19.5556C19.8917 13.8 20.1667 13.53 20.1667 13.2V10.2H15.8889ZM5.80556 16.2C6.64965 16.2 7.33333 15.5288 7.33333 14.7C7.33333 13.8713 6.64965 13.2 5.80556 13.2C4.96146 13.2 4.27778 13.8713 4.27778 14.7C4.27778 15.5288 4.96146 16.2 5.80556 16.2ZM16.1944 16.2C17.0385 16.2 17.7222 15.5288 17.7222 14.7C17.7222 13.8713 17.0385 13.2 16.1944 13.2C15.3503 13.2 14.6667 13.8713 14.6667 14.7C14.6667 15.5288 15.3503 16.2 16.1944 16.2Z" fill="#2563EB"/>
</svg>
