<svg width="22" height="22" viewBox="0 0 22 22" fill="none" xmlns="http://www.w3.org/2000/svg">
<path d="M10.75 10.7506L20.2476 5.7509M10.75 10.7506V20.75M10.75 10.7506L6.00059 8.25129M20.2476 5.7509C19.9181 5.23102 19.4454 4.80002 18.8771 4.50125L15.75 2.85486M20.2476 5.7509C20.5712 6.26114 20.75 6.84813 20.75 7.45891V14.0423C20.7496 14.6433 20.5762 15.2335 20.2472 15.753C19.9183 16.2725 19.4455 16.7027 18.8771 17L12.6229 20.2927C12.0528 20.5927 11.407 20.7504 10.75 20.75M10.75 20.75C10.093 20.7504 9.44725 20.5927 8.87706 20.2927L2.62294 17C1.46412 16.3903 0.75 15.2638 0.75 14.0423V7.45891C0.749829 6.85888 0.922761 6.26953 1.25118 5.7509M6.00059 8.25129L1.25118 5.7509M6.00059 8.25129L15.75 2.85486M15.75 2.85486L12.6229 1.20848C12.0529 0.908064 11.4072 0.75 10.75 0.75C10.0928 0.75 9.44712 0.908064 8.87706 1.20848L2.62294 4.50125C2.05418 4.79987 1.58106 5.23088 1.25118 5.7509" stroke="#2563EB" stroke-width="1.5" stroke-linejoin="round"/>
</svg>
