<svg width="44" height="32" viewBox="0 0 44 32" fill="none" xmlns="http://www.w3.org/2000/svg">
<path d="M22 0C23.8963 0 25.7149 0.755663 27.0558 2.10075C28.3967 3.44584 29.15 5.27017 29.15 7.17241C29.15 9.07466 28.3967 10.899 27.0558 12.2441C25.7149 13.5892 23.8963 14.3448 22 14.3448C20.1037 14.3448 18.2851 13.5892 16.9442 12.2441C15.6033 10.899 14.85 9.07466 14.85 7.17241C14.85 5.27017 15.6033 3.44584 16.9442 2.10075C18.2851 0.755663 20.1037 0 22 0ZM6.6 4.96552C7.25004 4.96552 7.89372 5.09395 8.49428 5.34349C9.09484 5.59304 9.64053 5.95879 10.1002 6.41988C10.5598 6.88097 10.9244 7.42837 11.1732 8.03081C11.422 8.63326 11.55 9.27895 11.55 9.93103C11.55 10.5831 11.422 11.2288 11.1732 11.8313C10.9244 12.4337 10.5598 12.9811 10.1002 13.4422C9.64053 13.9033 9.09484 14.269 8.49428 14.5186C7.89372 14.7681 7.25004 14.8966 6.6 14.8966C5.94996 14.8966 5.30628 14.7681 4.70572 14.5186C4.10516 14.269 3.55947 13.9033 3.09982 13.4422C2.64017 12.9811 2.27556 12.4337 2.0268 11.8313C1.77804 11.2288 1.65 10.5831 1.65 9.93103C1.65 9.27895 1.77804 8.63326 2.0268 8.03081C2.27556 7.42837 2.64017 6.88097 3.09982 6.41988C3.55947 5.95879 4.10516 5.59304 4.70572 5.34349C5.30628 5.09395 5.94996 4.96552 6.6 4.96552ZM0 27.5862C0 22.7103 3.93938 18.7586 8.8 18.7586C9.68 18.7586 10.5325 18.8897 11.3369 19.131C9.075 21.669 7.7 25.0207 7.7 28.6897V29.7931C7.7 30.5793 7.865 31.3241 8.16062 32H2.2C0.983125 32 0 31.0138 0 29.7931V27.5862ZM35.8394 32C36.135 31.3241 36.3 30.5793 36.3 29.7931V28.6897C36.3 25.0207 34.925 21.669 32.6631 19.131C33.4675 18.8897 34.32 18.7586 35.2 18.7586C40.0606 18.7586 44 22.7103 44 27.5862V29.7931C44 31.0138 43.0169 32 41.8 32H35.8394ZM32.45 9.93103C32.45 8.6141 32.9715 7.3511 33.8998 6.41988C34.8281 5.48867 36.0872 4.96552 37.4 4.96552C38.7128 4.96552 39.9719 5.48867 40.9002 6.41988C41.8285 7.3511 42.35 8.6141 42.35 9.93103C42.35 11.248 41.8285 12.511 40.9002 13.4422C39.9719 14.3734 38.7128 14.8966 37.4 14.8966C36.0872 14.8966 34.8281 14.3734 33.8998 13.4422C32.9715 12.511 32.45 11.248 32.45 9.93103ZM11 28.6897C11 22.5931 15.9225 17.6552 22 17.6552C28.0775 17.6552 33 22.5931 33 28.6897V29.7931C33 31.0138 32.0169 32 30.8 32H13.2C11.9831 32 11 31.0138 11 29.7931V28.6897Z" fill="#2563EB"/>
</svg>
