<svg width="32" height="34" viewBox="0 0 32 34" fill="none" xmlns="http://www.w3.org/2000/svg">
<path d="M14 33.9279C9.98133 32.796 6.64333 30.4874 3.986 27.0019C1.32867 23.5165 0 19.5891 0 15.2197V4.96066L14 0L28 4.96066V15.6901C27.7 15.5839 27.3707 15.4884 27.012 15.4037L26 15.1722V6.2677L14 2.03549L2 6.2658V15.2197C2 17.0952 2.292 18.891 2.876 20.6071C3.45867 22.3246 4.25333 23.9041 5.26 25.3459C6.26667 26.7876 7.45667 28.0459 8.83 29.1209C10.2033 30.1959 11.6693 31.0173 13.228 31.5851L13.342 31.5472C13.5033 31.9266 13.7047 32.2959 13.946 32.655C14.186 33.0117 14.4593 33.3468 14.766 33.6604C14.63 33.7098 14.502 33.754 14.382 33.7932L14 33.9279ZM24 34C21.772 34 19.882 33.264 18.33 31.7919C16.7767 30.3173 16 28.524 16 26.412C16 24.3 16.7767 22.5073 18.33 21.034C19.8833 19.5606 21.7733 18.824 24 18.824C26.2267 18.824 28.1173 19.5606 29.672 21.034C31.2267 22.5073 32.0027 24.3 32 26.412C31.9973 28.524 31.2213 30.3173 29.672 31.7919C28.1227 33.2665 26.232 34.0025 24 34ZM23.23 31.1545H24.77V27.1404H29V25.6816H24.768V21.6695H23.23V25.6835H19V27.1423H23.232L23.23 31.1545Z" fill="#1E293B"/>
</svg>
