<svg width="34" height="34" viewBox="0 0 34 34" fill="none" xmlns="http://www.w3.org/2000/svg">
<path d="M23.0794 0.356703C23.211 0.243633 23.3673 0.153925 23.5394 0.0927159C23.7115 0.0315069 23.896 0 24.0823 0C24.2686 0 24.4531 0.0315069 24.6252 0.0927159C24.7972 0.153925 24.9536 0.243633 25.0851 0.356703L33.5839 7.64162C33.7158 7.75441 33.8204 7.88839 33.8918 8.0359C33.9632 8.18341 34 8.34154 34 8.50124C34 8.66095 33.9632 8.81908 33.8918 8.96659C33.8204 9.1141 33.7158 9.24808 33.5839 9.36087L25.0851 16.6458C24.9534 16.7587 24.7971 16.8482 24.625 16.9093C24.4529 16.9704 24.2685 17.0019 24.0823 17.0019C23.896 17.0019 23.7116 16.9704 23.5395 16.9093C23.3675 16.8482 23.2111 16.7587 23.0794 16.6458C22.9477 16.5329 22.8433 16.3989 22.772 16.2514C22.7007 16.1039 22.664 15.9458 22.664 15.7862C22.664 15.6265 22.7007 15.4684 22.772 15.3209C22.8433 15.1734 22.9477 15.0394 23.0794 14.9265L29.1617 9.7154H1.41899C1.04332 9.7154 0.68304 9.58748 0.417403 9.35978C0.151766 9.13208 0.00253214 8.82326 0.00253214 8.50124C0.00253214 8.17923 0.151766 7.87041 0.417403 7.64271C0.68304 7.41501 1.04332 7.28709 1.41899 7.28709H29.1617L23.0794 2.07594C22.9475 1.96316 22.8429 1.82918 22.7715 1.68167C22.7 1.53416 22.6633 1.37603 22.6633 1.21632C22.6633 1.05662 22.7 0.898486 22.7715 0.750978C22.8429 0.603471 22.9475 0.469487 23.0794 0.356703ZM10.9206 17.3549C11.0525 17.4676 11.1571 17.6016 11.2285 17.7491C11.3 17.8966 11.3367 18.0548 11.3367 18.2145C11.3367 18.3742 11.3 18.5323 11.2285 18.6798C11.1571 18.8273 11.0525 18.9613 10.9206 19.0741L4.83831 24.2852H32.581C32.9567 24.2852 33.317 24.4132 33.5826 24.6409C33.8482 24.8686 33.9975 25.1774 33.9975 25.4994C33.9975 25.8214 33.8482 26.1302 33.5826 26.3579C33.317 26.5856 32.9567 26.7135 32.581 26.7135H4.83831L10.9206 31.9247C11.1865 32.1527 11.336 32.4619 11.336 32.7843C11.336 33.1067 11.1865 33.4159 10.9206 33.6439C10.6546 33.8719 10.2939 34 9.91772 34C9.54158 34 9.18084 33.8719 8.91487 33.6439L0.416137 26.359C0.284227 26.2462 0.179571 26.1122 0.108164 25.9647C0.0367559 25.8172 0 25.6591 0 25.4994C0 25.3397 0.0367559 25.1816 0.108164 25.034C0.179571 24.8865 0.284227 24.7526 0.416137 24.6398L8.91487 17.3549C9.04645 17.2418 9.20275 17.1521 9.37484 17.0909C9.54693 17.0297 9.73141 16.9981 9.91772 16.9981C10.104 16.9981 10.2885 17.0297 10.4606 17.0909C10.6327 17.1521 10.789 17.2418 10.9206 17.3549Z" fill="#1E293B"/>
</svg>
