<svg width="34" height="34" viewBox="0 0 34 34" fill="none" xmlns="http://www.w3.org/2000/svg">
<path d="M16.0936 0C21.5065 0 25.8943 4.36223 25.8943 9.74446C25.8955 11.1549 25.5889 12.5485 24.9957 13.8282C24.4026 15.1078 23.5373 16.2425 22.4602 17.1531C22.9192 17.3798 23.3374 17.6081 23.7148 17.8382C24.5263 18.3312 25.3706 18.9426 26.2479 19.6725C26.3662 19.7707 26.4639 19.8913 26.5353 20.0275C26.6068 20.1636 26.6506 20.3126 26.6642 20.4657C26.6778 20.6189 26.6609 20.7732 26.6145 20.9198C26.5682 21.0664 26.4932 21.2023 26.3941 21.3198C26.1932 21.5583 25.906 21.7075 25.5955 21.7349C25.2849 21.7623 24.9761 21.6656 24.7365 21.466C24.0289 20.8671 23.2777 20.3216 22.4891 19.834C21.7224 19.3792 20.9242 18.9798 20.1005 18.6389C18.8391 19.1996 17.474 19.4892 16.0936 19.4889C14.5718 19.4891 13.0706 19.1371 11.7075 18.4604L11.6361 18.4944C8.32103 19.7796 5.90189 21.6802 4.33956 24.203C2.77213 26.7344 2.13122 29.5632 2.41853 32.7269C2.44491 33.0366 2.3473 33.3441 2.14712 33.5819C1.94695 33.8197 1.66058 33.9683 1.35091 33.9951C1.04144 34.0235 0.733354 33.9279 0.494302 33.7293C0.255249 33.5307 0.104764 33.2454 0.0758849 32.936C-0.255621 29.2776 0.499193 25.9439 2.33693 22.9773C3.95196 20.3661 6.3269 18.3363 9.43285 16.8879C8.44323 15.9797 7.65322 14.8757 7.11297 13.646C6.57272 12.4163 6.29403 11.0876 6.2946 9.74446C6.2946 4.36223 10.6807 0 16.0936 0ZM28.6755 21.5782C29.3215 21.5782 29.8451 22.1052 29.8451 22.7529V25.7314H32.8236C32.9778 25.7309 33.1305 25.7609 33.2731 25.8195C33.4157 25.8781 33.5454 25.9643 33.6546 26.0731C33.7639 26.1819 33.8506 26.3112 33.9099 26.4535C33.9692 26.5958 33.9998 26.7485 34 26.9027C33.9986 27.2135 33.874 27.511 33.6534 27.73C33.4329 27.949 33.1344 28.0715 32.8236 28.0706H29.8451V31.0507C29.8456 31.3615 29.7227 31.6598 29.5034 31.88C29.2841 32.1003 28.9863 32.2245 28.6755 32.2254C28.3647 32.2245 28.0669 32.1003 27.8476 31.88C27.6284 31.6598 27.5054 31.3615 27.5059 31.0507V28.0706H24.5274C24.2166 28.0715 23.9182 27.949 23.6976 27.73C23.477 27.511 23.3524 27.2135 23.351 26.9027C23.351 26.2567 23.878 25.7331 24.5274 25.7331L27.5059 25.7314V22.7529C27.5054 22.4421 27.6284 22.1438 27.8476 21.9236C28.0669 21.7033 28.3647 21.5791 28.6755 21.5782ZM16.0953 2.33921C11.9812 2.33921 8.64574 5.65423 8.64574 9.74446C8.64574 13.8347 11.9812 17.1514 16.0936 17.1514C20.206 17.1514 23.5414 13.8364 23.5414 9.74446C23.5414 5.65253 20.2076 2.33921 16.0953 2.33921Z" fill="#1E293B"/>
</svg>
