<svg width="44" height="32" viewBox="0 0 44 32" fill="none" xmlns="http://www.w3.org/2000/svg">
<path d="M8.25 19.4251C8.25 18.9705 8.42384 18.5344 8.73328 18.2129C9.04271 17.8914 9.4624 17.7108 9.9 17.7108H34.1C34.5376 17.7108 34.9573 17.8914 35.2667 18.2129C35.5762 18.5344 35.75 18.9705 35.75 19.4251V22.8537C35.7512 24.0869 35.3259 25.2796 34.5515 26.2143C33.7771 27.1489 32.7052 27.7633 31.5312 27.9455C30.3572 28.1276 29.1593 27.8654 28.1558 27.2066C27.1523 26.5479 26.4101 25.5364 26.0645 24.3565C25.5915 22.7428 24.1285 21.1394 22 21.1394C19.8715 21.1394 18.4096 22.7428 17.9355 24.3565C17.5899 25.5364 16.8477 26.5479 15.8442 27.2066C14.8407 27.8654 13.6428 28.1276 12.4688 27.9455C11.2948 27.7633 10.223 27.1489 9.44854 26.2143C8.67413 25.2796 8.24877 24.0869 8.25 22.8537V19.4251Z" fill="#2563EB"/>
<path fill-rule="evenodd" clip-rule="evenodd" d="M14.3 0C6.402 0 1.14651e-07 6.65013 1.14651e-07 14.8543C-0.000258666 16.1713 0.437562 17.448 1.23936 18.4683C2.04116 19.4886 3.1577 20.1897 4.4 20.4532V22.8527C4.39857 25.0443 5.15522 27.1636 6.53208 28.8242C7.90894 30.4848 9.81435 31.5764 11.9011 31.8999C13.9879 32.2233 16.117 31.7573 17.9007 30.5866C19.6843 29.4159 21.0037 27.6185 21.6183 25.5219C21.6517 25.4049 21.7165 25.3002 21.8053 25.2202C21.8584 25.1691 21.9276 25.1398 22 25.138C22.055 25.138 22.121 25.1574 22.1947 25.2202C22.2717 25.2865 22.3432 25.3916 22.3817 25.5219C22.9963 27.6185 24.3157 29.4159 26.0993 30.5866C27.883 31.7573 30.0121 32.2233 32.0989 31.8999C34.1856 31.5764 36.0911 30.4848 37.4679 28.8242C38.8448 27.1636 39.6014 25.0443 39.6 22.8527V20.4532C40.8423 20.1897 41.9588 19.4886 42.7606 18.4683C43.5624 17.448 44.0003 16.1713 44 14.8543C44 6.65013 37.598 0 29.7 0H14.3ZM39.4592 18.1348C40.1365 17.921 40.7297 17.4868 41.1512 16.8961C41.5726 16.3054 41.8001 15.5895 41.8 14.8543C41.8 7.91275 36.3825 2.28527 29.7 2.28527H14.3C7.6175 2.28527 2.2 7.91275 2.2 14.8543C2.19988 15.5895 2.42735 16.3054 2.84885 16.8961C3.27035 17.4868 3.86352 17.921 4.5408 18.1348C4.82148 16.8769 5.50406 15.7549 6.47729 14.9517C7.45051 14.1484 8.65698 13.7113 9.9 13.7116H34.1C35.343 13.7113 36.5495 14.1484 37.5227 14.9517C38.4959 15.7549 39.1785 16.8769 39.4592 18.1348ZM9.9 15.9969C9.02479 15.9969 8.18542 16.358 7.56655 17.0009C6.94768 17.6438 6.6 18.5157 6.6 19.4248V22.8527C6.59844 24.4967 7.16565 26.0865 8.19823 27.3324C9.23081 28.5783 10.66 29.3973 12.2253 29.6401C13.7906 29.8829 15.3878 29.5333 16.7257 28.6551C18.0636 27.7769 19.0532 26.4285 19.514 24.8557C19.822 23.8045 20.746 22.8527 22 22.8527C23.254 22.8527 24.178 23.8057 24.486 24.8557C24.9468 26.4285 25.9364 27.7769 27.2743 28.6551C28.6122 29.5333 30.2094 29.8829 31.7747 29.6401C33.34 29.3973 34.7692 28.5783 35.8018 27.3324C36.8343 26.0865 37.4016 24.4967 37.4 22.8527V19.4248C37.4 18.5157 37.0523 17.6438 36.4335 17.0009C35.8146 16.358 34.9752 15.9969 34.1 15.9969H9.9Z" fill="#2563EB"/>
</svg>
