<svg width="60" height="60" viewBox="0 0 60 60" fill="none" xmlns="http://www.w3.org/2000/svg">
<rect width="60" height="60" rx="10" fill="#FFE0A5"/>
<path d="M30 41C31.3812 41 32.5 42.1187 32.5 43.5C32.5 44.8813 31.3812 46 30 46C28.6187 46 27.5 44.8813 27.5 43.5C27.5 42.1187 28.6187 41 30 41ZM30 14C31.6562 14 33 15.3438 33 17C33 17.0375 33 17.0687 33 17.1062L32 36.1063C31.9437 37.1688 31.0625 38 30 38C28.9375 38 28.0625 37.1688 28 36.1063L27 17.1062C27 17.0687 27 17.0375 27 17C27 15.3438 28.3438 14 30 14Z" fill="#FFA700"/>
</svg>
