<svg width="199" height="32" viewBox="0 0 199 32" fill="none" xmlns="http://www.w3.org/2000/svg">
<path d="M176.118 20.4994C176.118 18.2396 176.584 16.2623 177.517 14.5675C178.45 12.8457 179.726 11.5141 181.344 10.5725C182.991 9.63095 184.829 9.16016 186.859 9.16016C188.615 9.16016 190.248 9.56369 191.757 10.3708C193.266 11.1509 194.418 12.1866 195.214 13.4779V1.77554H199V31.6368H195.214V27.4805C194.473 28.7987 193.375 29.8882 191.921 30.7491C190.467 31.583 188.766 32 186.818 32C184.815 32 182.991 31.5158 181.344 30.5473C179.726 29.5788 178.45 28.2203 177.517 26.4716C176.584 24.723 176.118 22.7323 176.118 20.4994ZM195.214 20.5397C195.214 18.8718 194.871 17.4191 194.185 16.1816C193.499 14.9441 192.566 14.0025 191.386 13.3569C190.234 12.6843 188.958 12.3481 187.559 12.3481C186.159 12.3481 184.884 12.6709 183.731 13.3165C182.579 13.9622 181.66 14.9038 180.974 16.1412C180.288 17.3787 179.945 18.8315 179.945 20.4994C179.945 22.1942 180.288 23.6738 180.974 24.9382C181.66 26.1757 182.579 27.1307 183.731 27.8033C184.884 28.4489 186.159 28.7718 187.559 28.7718C188.958 28.7718 190.234 28.4489 191.386 27.8033C192.566 27.1307 193.499 26.1757 194.185 24.9382C194.871 23.6738 195.214 22.2077 195.214 20.5397Z" fill="#1E293B"/>
<path d="M162.18 9.1198C164.924 9.1198 167.146 9.94031 168.848 11.5813C170.549 13.1955 171.399 15.5359 171.399 18.6028V31.6368H167.695V19.1274C167.695 16.9214 167.133 15.24 166.008 14.0832C164.883 12.8995 163.346 12.3077 161.398 12.3077C159.423 12.3077 157.845 12.913 156.665 14.1236C155.513 15.3342 154.937 17.0963 154.937 19.4098V31.6368H151.192V9.52333H154.937V12.6709C155.678 11.541 156.679 10.6667 157.941 10.0479C159.231 9.42917 160.644 9.1198 162.18 9.1198Z" fill="#1E293B"/>
<path d="M121.98 20.4994C121.98 18.2396 122.447 16.2623 123.38 14.5675C124.313 12.8457 125.588 11.5141 127.207 10.5725C128.853 9.63093 130.678 9.16014 132.681 9.16014C134.656 9.16014 136.371 9.57712 137.825 10.4111C139.279 11.2451 140.363 12.2942 141.077 13.5586V9.52332H144.863V31.6368H141.077V27.5208C140.336 28.8121 139.225 29.8882 137.743 30.7491C136.289 31.583 134.588 32 132.64 32C130.637 32 128.826 31.5158 127.207 30.5473C125.588 29.5788 124.313 28.2203 123.38 26.4716C122.447 24.723 121.98 22.7322 121.98 20.4994ZM141.077 20.5397C141.077 18.8718 140.734 17.4191 140.048 16.1816C139.362 14.9441 138.429 14.0025 137.249 13.3569C136.097 12.6843 134.821 12.348 133.422 12.348C132.022 12.348 130.747 12.6709 129.594 13.3165C128.442 13.9622 127.523 14.9037 126.837 16.1412C126.151 17.3787 125.808 18.8314 125.808 20.4994C125.808 22.1942 126.151 23.6738 126.837 24.9382C127.523 26.1757 128.442 27.1307 129.594 27.8033C130.747 28.4489 132.022 28.7717 133.422 28.7717C134.821 28.7717 136.097 28.4489 137.249 27.8033C138.429 27.1307 139.362 26.1757 140.048 24.9382C140.734 23.6738 141.077 22.2076 141.077 20.5397Z" fill="#1E293B"/>
<path d="M116.985 3.51071V31.6368H113.24V18.8852H98.6295V31.6368H94.8843V3.51071H98.6295V15.8588H113.24V3.51071H116.985Z" fill="#1E293B"/>
<path d="M90.5543 20.0151C90.5543 20.6608 90.5132 21.3333 90.4308 22.0328H74.5037C74.6134 23.4317 75.0661 24.5078 75.8618 25.261C76.6849 25.9874 77.6864 26.3506 78.8662 26.3506C80.6221 26.3506 81.8431 25.6242 82.529 24.1715H90.0193C89.6352 25.6511 88.9355 26.9828 87.9204 28.1665C86.9326 29.3501 85.6842 30.2783 84.1752 30.9508C82.6662 31.6234 80.9788 31.9596 79.1131 31.9596C76.8632 31.9596 74.8604 31.4889 73.1044 30.5473C71.3484 29.6057 69.9766 28.2606 68.9888 26.512C68.0011 24.7633 67.5072 22.7188 67.5072 20.3783C67.5072 18.0378 67.9874 15.9933 68.9477 14.2446C69.9354 12.496 71.3073 11.1509 73.0632 10.2093C74.8192 9.26775 76.8358 8.79697 79.1131 8.79697C81.3355 8.79697 83.3109 9.2543 85.0395 10.169C86.768 11.0836 88.1124 12.3884 89.0727 14.0832C90.0604 15.7781 90.5543 17.7554 90.5543 20.0151ZM83.3521 18.1992C83.3521 17.0155 82.9405 16.074 82.1174 15.3745C81.2943 14.6751 80.2654 14.3253 79.0308 14.3253C77.851 14.3253 76.8495 14.6616 76.0264 15.3342C75.2307 16.0067 74.7369 16.9617 74.5448 18.1992H83.3521Z" fill="#1E293B"/>
<path d="M65.5996 14.8499H61.8133V31.6368H54.7757V14.8499H52.2241V9.1198H54.7757V8.47415C54.7757 5.70324 55.5851 3.60488 57.2039 2.17907C58.8227 0.726356 61.196 0 64.3238 0C64.8451 0 65.2292 0.0134509 65.4762 0.0403526V5.89155C64.1318 5.81085 63.1852 5.99916 62.6364 6.4565C62.0877 6.91383 61.8133 7.73434 61.8133 8.91803V9.1198H65.5996V14.8499Z" fill="#1E293B"/>
<path d="M24.7441 20.338C24.7441 18.0244 25.1831 15.9933 26.0611 14.2446C26.9665 12.496 28.1875 11.1509 29.7239 10.2093C31.2604 9.26775 32.9752 8.79697 34.8684 8.79697C36.4871 8.79697 37.9002 9.11979 39.1074 9.76544C40.342 10.4111 41.2886 11.2585 41.9471 12.3077V9.11979H48.9847V31.6368H41.9471V28.4489C41.2612 29.4981 40.3009 30.3455 39.0662 30.9912C37.859 31.6368 36.446 31.9596 34.8272 31.9596C32.9615 31.9596 31.2604 31.4889 29.7239 30.5473C28.1875 29.5788 26.9665 28.2203 26.0611 26.4716C25.1831 24.6961 24.7441 22.6515 24.7441 20.338ZM41.9471 20.3783C41.9471 18.6566 41.4532 17.298 40.4655 16.3026C39.5052 15.3073 38.3254 14.8096 36.9261 14.8096C35.5269 14.8096 34.3333 15.3073 33.3456 16.3026C32.3853 17.2711 31.9052 18.6162 31.9052 20.338C31.9052 22.0597 32.3853 23.4317 33.3456 24.454C34.3333 25.4493 35.5269 25.947 36.9261 25.947C38.3254 25.947 39.5052 25.4493 40.4655 24.454C41.4532 23.4586 41.9471 22.1 41.9471 20.3783Z" fill="#1E293B"/>
<path d="M11.2766 31.9193C9.16396 31.9193 7.27081 31.583 5.59715 30.9105C3.92349 30.2379 2.57908 29.2425 1.56391 27.9243C0.576177 26.6061 0.054874 25.0189 0 23.1627H7.4903C7.60005 24.2119 7.97045 25.0189 8.6015 25.5839C9.23255 26.1219 10.0557 26.3909 11.0708 26.3909C12.1134 26.3909 12.9365 26.1623 13.5402 25.7049C14.1438 25.2207 14.4456 24.5616 14.4456 23.7276C14.4456 23.0282 14.1986 22.4498 13.7048 21.9924C13.2384 21.5351 12.6485 21.1585 11.9351 20.8626C11.2492 20.5666 10.2614 20.2304 8.9719 19.8537C7.10618 19.2888 5.58343 18.7238 4.40364 18.1589C3.22385 17.594 2.20868 16.76 1.35813 15.657C0.507585 14.554 0.082311 13.1148 0.082311 11.3392C0.082311 8.70282 1.05632 6.64481 3.00435 5.1652C4.95238 3.65868 7.4903 2.90543 10.6181 2.90543C13.8008 2.90543 16.3662 3.65868 18.3142 5.1652C20.2622 6.64481 21.3048 8.71627 21.442 11.3796H13.8282C13.7734 10.4649 13.4304 9.752 12.7994 9.24086C12.1683 8.70282 11.3589 8.4338 10.3712 8.4338C9.52064 8.4338 8.83471 8.66247 8.31341 9.1198C7.79211 9.55023 7.53146 10.1824 7.53146 11.0164C7.53146 11.9311 7.97045 12.644 8.84843 13.1551C9.72642 13.6663 11.0983 14.2177 12.964 14.8096C14.8297 15.4283 16.3387 16.0202 17.4911 16.5851C18.6709 17.1501 19.6861 17.9706 20.5366 19.0467C21.3871 20.1227 21.8124 21.5082 21.8124 23.203C21.8124 24.8172 21.3871 26.2833 20.5366 27.6015C19.7135 28.9197 18.5063 29.9689 16.9149 30.7491C15.3236 31.5292 13.4441 31.9193 11.2766 31.9193Z" fill="#1E293B"/>
</svg>
