<svg width="18" height="21" viewBox="0 0 18 21" fill="none" xmlns="http://www.w3.org/2000/svg">
<path d="M9.00201 0C8.29069 0 7.71601 0.586523 7.71601 1.3125V1.44375C4.78232 2.05078 2.572 4.70039 2.572 7.875V8.76504C2.572 10.7379 1.91293 12.6533 0.707301 14.1955L0.313463 14.6959C0.108506 14.9543 0 15.2742 0 15.6064C0 16.4104 0.638982 17.0625 1.42666 17.0625H16.5733C17.361 17.0625 18 16.4104 18 15.6064C18 15.2742 17.8915 14.9543 17.6865 14.6959L17.2927 14.1955C16.0911 12.6533 15.432 10.7379 15.432 8.76504V7.875C15.432 4.70039 13.2217 2.05078 10.288 1.44375V1.3125C10.288 0.586523 9.71333 0 9.00201 0ZM6.51038 19.0312C6.79571 20.1633 7.80442 21 9.00201 21C10.1996 21 11.2083 20.1633 11.4936 19.0312H6.51038Z" fill="#2563EB"/>
</svg>
