<svg width="17" height="22" viewBox="0 0 17 22" fill="none" xmlns="http://www.w3.org/2000/svg">
<path d="M5.66667 5.17647V7.76471H11.3333V5.17647C11.3333 3.7489 10.0628 2.58824 8.5 2.58824C6.93724 2.58824 5.66667 3.7489 5.66667 5.17647ZM2.83333 7.76471V5.17647C2.83333 2.31728 5.37005 0 8.5 0C11.6299 0 14.1667 2.31728 14.1667 5.17647V7.76471C15.7294 7.76471 17 8.92537 17 10.3529V19.4118C17 20.8393 15.7294 22 14.1667 22H2.83333C1.27057 22 0 20.8393 0 19.4118V10.3529C0 8.92537 1.27057 7.76471 2.83333 7.76471Z" fill="#2563EB"/>
</svg>
