<svg width="22" height="22" viewBox="0 0 22 22" fill="none" xmlns="http://www.w3.org/2000/svg">
<path d="M11 0C17.0758 0 22 4.92422 22 11C22 17.0758 17.0758 22 11 22C4.92422 22 0 17.0758 0 11C0 4.92422 4.92422 0 11 0ZM11 8.25C11.7605 8.25 12.375 7.63555 12.375 6.875C12.375 6.11445 11.7605 5.5 11 5.5C10.2395 5.5 9.625 6.11445 9.625 6.875C9.625 7.63555 10.2395 8.25 11 8.25ZM11 16.5C11.782 16.5 12.4051 15.834 12.3492 15.052L12.0312 10.5832C11.9926 10.0418 11.5414 9.625 11.0043 9.625C10.4629 9.625 10.016 10.0418 9.97734 10.5832L9.65937 15.052C9.60351 15.834 10.2223 16.5 11.0086 16.5H11Z" fill="#2563EB"/>
</svg>
