<svg width="60" height="60" viewBox="0 0 60 60" fill="none" xmlns="http://www.w3.org/2000/svg">
<rect width="60" height="60" rx="10" fill="#A1E4BA"/>
<path d="M30.5 48C20.2816 48 12 39.7184 12 29.5C12 19.2816 20.2816 11 30.5 11C40.7184 11 49 19.2816 49 29.5C49 39.7184 40.7184 48 30.5 48ZM30.5 14.4688C22.1967 14.4688 15.4688 21.1967 15.4688 29.5C15.4688 37.8033 22.1967 44.5312 30.5 44.5312C38.8033 44.5312 45.5312 37.8033 45.5312 29.5C45.5312 21.1967 38.8033 14.4688 30.5 14.4688ZM35.6092 23.2779C36.1729 22.5047 37.2568 22.3313 38.0301 22.8949C38.8033 23.4586 38.9768 24.5426 38.4131 25.3158L29.5895 37.4564C29.2932 37.8684 28.8307 38.1285 28.3248 38.1646C27.8189 38.2008 27.3203 38.0201 26.9662 37.666L22.9266 33.6264C22.2473 32.9471 22.2473 31.8486 22.9266 31.1766C23.6059 30.5045 24.7043 30.4973 25.3764 31.1766L27.9779 33.7781L35.6092 23.2852V23.2779Z" fill="#16A34A"/>
</svg>
